<?xml version="1.0" encoding="UTF-8"?>
<svg width="682px" height="389px" viewBox="0 0 682 389" version="1.1" xmlns="http://www.w3.org/2000/svg" xmlns:xlink="http://www.w3.org/1999/xlink">
    <!-- Generator: Sketch 45 (43475) - http://www.bohemiancoding.com/sketch -->
    <title>Isometric</title>
    <desc>Created with Sketch.</desc>
    <defs>
        <polygon id="path-1" points="0 124.126328 0 0.703507823 182.147695 0.703507823 182.147695 124.126328"></polygon>
        <path d="M194.104102,71.8658861 L73.4083008,1.48996429 C71.596875,0.432784014 69.3609375,0.432784014 67.5495117,1.48731803 L1.63417969,39.8686514 C-0.119238281,40.888784 -0.117919922,43.427869 1.63549805,44.4466786 L122.741309,114.817308 C124.58042,115.886396 126.851953,115.866549 128.672607,114.767029 L194.131787,75.2253112 C195.397412,74.4592194 195.384229,72.6108078 194.104102,71.8658861" id="path-3"></path>
        <path d="M182.538194,1.73972814 L1.43786133,105.851005 C0.322529297,106.503308 0.323847656,108.120172 2.75753906,110.092958 L226.314375,239.371948 C227.069775,239.696621 227.545555,239.57482 228.00583,239.369301 L408.834639,134.013812 C410.316475,133.115407 411.10749,131.313305 410.565645,129.664686 C410.391621,129.132788 410.122676,128.718648 409.675752,128.459315 L190.529746,1.74967144 L190.529746,1.74967144 C188.058459,0.320780152 185.013028,0.316990946 182.538194,1.73972814 Z" id="path-5"></path>
    </defs>
    <g id="V1.1" stroke="none" stroke-width="1" fill="none" fill-rule="evenodd">
        <g id="1.0-Home" transform="translate(-714.000000, -260.000000)">
            <g id="Isometric" transform="translate(714.000000, 260.000000)">
                <path d="M15.2502065,288.515923 L188.063649,388.336687 L188.063649,388.336687 C189.303776,389.053011 190.832242,389.051674 192.071114,388.333182 L316.045534,316.433363 L316.045534,316.433363 C317.956544,315.325059 318.607266,312.877422 317.498962,310.966413 C317.149299,310.363499 316.648168,309.862413 316.045223,309.512803 L142.434729,208.847052 L142.434729,208.847052 C141.183957,208.121808 139.639163,208.127984 138.394229,208.863204 L15.2168607,281.60801 L15.2168607,281.60801 C13.3146715,282.731385 12.6833179,285.18409 13.806693,287.086279 C14.1568058,287.679118 14.6540148,288.17155 15.2502065,288.515923 Z" id="Fill-3" fill="#F0EEEE"></path>
                <path d="M679.388726,96.3605772 L532.288823,10.9446452 C529.25396,9.18223707 525.508501,9.1967915 522.486821,10.9816929 L454.621636,51.0751554 C449.485308,54.1090908 449.518267,61.5728629 454.678325,64.563135 L596.412505,146.689768 C598.819829,148.084346 601.784819,148.084346 604.190825,146.689768 L679.384771,103.119121 C681.976665,101.61737 681.979302,97.8649752 679.388726,96.3605772" id="Fill-27" fill="#F0EEEE"></path>
                <path d="M570.493987,164.273951 L303.513623,10.221931 C301.433252,9.02052959 298.872998,9.02317585 296.795264,10.2285466 L91.812793,129.004536 L358.369238,282.973118 C362.531299,285.377244 367.655762,285.371951 371.813867,282.96121 L570.49778,167.736359 L570.49778,167.736359 C571.453292,167.182219 571.778668,165.958405 571.224528,165.002893 C571.048977,164.700187 570.797077,164.448839 570.493987,164.273951 Z" id="Fill-39" fill="#F0EEEE"></path>
                <polygon id="Fill-1" fill="#FFFFFF" points="182.066089 367.494143 182.066089 386.514126 182.147827 367.494143 314.01145 290.972286"></polygon>
                <path d="M181.901162,386.761551 L182.065957,386.514126 L181.901162,386.761551 Z" id="Fill-2" fill="#FFFFFF"></path>
                <path d="M1.31822754,263.090512 L182.066616,367.494672 L314.010659,290.972815 L134.43295,186.847052 L134.43295,186.847052 C133.182177,186.121808 131.637384,186.127984 130.392449,186.863204 L1.31822754,263.090512 Z" id="Fill-3" fill="#DEF1FF"></path>
                <g id="Group-62" transform="translate(0.000000, 0.084680)">
                    <g id="Group-6" transform="translate(0.000000, 262.302721)">
                        <mask id="mask-2" fill="white">
                            <use xlink:href="#path-1"></use>
                        </mask>
                        <g id="Clip-5"></g>
                        <path d="M182.065957,124.126328 L182.147695,105.106345 L1.31756836,0.703507823 C1.31756836,0.703507823 -0.000791015625,3.00707585 -0.000791015625,10.3927833 C-0.000791015625,17.7798139 0.956337891,19.0195861 0.956337891,19.0195861 C0.956337891,20.4393037 182.065957,124.126328 182.065957,124.126328" id="Fill-4" fill="#B4D4EB" mask="url(#mask-2)"></path>
                    </g>
                    <path d="M211.023457,250.340574 L135.116279,206.94855 C133.492061,206.019714 131.50002,206.023683 129.878438,206.957812 L37.108125,260.454574 C35.3349316,261.477353 35.3467969,264.04687 37.1279004,265.053771 L113.530781,308.26188 C115.152363,309.180132 117.136494,309.17087 118.750166,308.239387 L211.034004,254.933156 C212.800605,253.9117 212.794014,251.352768 211.023457,250.340574" id="Fill-7" fill="#FFFFFF"></path>
                    <path d="M246.230376,270.974378 L233.352642,263.494728 C232.127886,262.782885 230.615728,262.782885 229.39229,263.494728 L134.608843,318.515735 C133.729497,319.02514 133.730815,320.300636 134.612798,320.808718 L147.139849,328.015803 C148.358013,328.718385 149.854351,328.718385 151.073833,328.015803 L246.225103,273.266038 C247.107085,272.760602 247.109722,271.485106 246.230376,270.974378" id="Fill-9" fill="#FFFFFF"></path>
                    <path d="M278.920283,289.905182 L266.042549,282.425532 C264.817793,281.713689 263.306953,281.713689 262.082197,282.425532 L167.29875,337.446539 C166.419404,337.955944 166.422041,339.23144 167.302705,339.739522 L179.829756,346.946607 C181.04792,347.649189 182.544258,347.649189 183.76374,346.946607 L278.91501,292.196842 C279.796992,291.691406 279.799629,290.41591 278.920283,289.905182" id="Fill-11" fill="#FFFFFF"></path>
                    <polyline id="Fill-13" fill="#FFFFFF" points="314.011318 290.887209 182.147695 367.409066 182.065957 385.105919 314.011318 308.598617"></polyline>
                    <path d="M182.065957,379.813402 L314.011318,303.3061" id="Stroke-15" stroke="#E8E8E8" stroke-width="1.3186152" stroke-linecap="round" stroke-linejoin="round"></path>
                    <path d="M182.065957,375.844015 L314.011318,299.336712" id="Stroke-17" stroke="#E8E8E8" stroke-width="1.3186152" stroke-linecap="round" stroke-linejoin="round"></path>
                    <path d="M182.065957,371.874627 L314.011318,295.367324" id="Stroke-19" stroke="#E8E8E8" stroke-width="1.3186152" stroke-linecap="round" stroke-linejoin="round"></path>
                    <polyline id="Stroke-21" stroke="#B4D4EB" stroke-width="2.6372304" stroke-linecap="round" stroke-linejoin="round" points="314.011318 290.887209 182.147695 367.409066 182.065957 385.105919 314.011318 308.598617"></polyline>
                    <path d="M374.106094,292.044947 L373.941299,292.292372" id="Fill-23" fill="#FFFFFF"></path>
                    <path d="M589.13644,142.884087 C592.171304,144.643849 595.914126,144.626649 598.934487,142.84307 L671.080386,100.203907 C673.092202,99.0408765 674.330142,96.8894684 674.330142,94.562084 L674.330142,91.3998051 C674.095474,90.129601 673.442886,89.0327269 672.20231,88.7773629 C649.215396,84.0643765 447.747671,42.773482 446.881509,43.4866486 C445.209829,44.8640262 444.269839,46.9135534 443.908608,49.1496418 C443.038491,54.5241929 445.854507,59.8339105 450.55314,62.5582337 L589.13644,142.884087 Z" id="Fill-25" fill="#B4D4EB"></path>
                    <path d="M672.388726,88.2758969 L525.288823,2.85996497 C522.25396,1.0975568 518.508501,1.11211122 515.486821,2.89701259 L447.621636,42.9904752 C442.485308,46.0244105 442.518267,53.4881827 447.678325,56.4784548 L589.412505,138.605087 C591.819829,139.999666 594.784819,139.999666 597.190825,138.605087 L672.384771,95.0344412 C674.976665,93.5326895 674.979302,89.7802949 672.388726,88.2758969" id="Fill-27" fill="#DEF1FF"></path>
                    <g id="Group-2" transform="translate(456.000000, 11.000000)">
                        <mask id="mask-4" fill="white">
                            <use xlink:href="#path-3"></use>
                        </mask>
                        <use id="Fill-29" fill="#FFFFFF" xlink:href="#path-3"></use>
                    </g>
                    <path d="M631.57377,111.315017 C631.57377,113.697973 628.855313,115.629742 625.504043,115.629742 C622.152773,115.629742 619.434316,113.697973 619.434316,111.315017 C619.434316,108.932062 622.152773,107.000293 625.504043,107.000293 C628.855313,107.000293 631.57377,108.932062 631.57377,111.315017" id="Fill-31" fill="#B4D4EB"></path>
                    <g id="Group-36" transform="translate(474.609375, 18.846939)">
                        <path d="M25.0588477,0.973823129 L0.985605469,15.1961395" id="Fill-33" fill="#CBDFF3"></path>
                        <path d="M25.0588477,0.973823129 L0.985605469,15.1961395" id="Stroke-35" stroke="#B4D4EB" stroke-width="1.9779228" stroke-linecap="round" stroke-linejoin="round"></path>
                    </g>
                    <path d="M557.265259,153.991614 C491.320243,189.670553 423.596992,229.641454 354.095508,273.904315 L80.812793,119.919856 L80.812793,125.691346 C80.812793,128.123257 82.1140137,130.365962 84.2220703,131.56604 L347.415381,281.356179 C351.556348,283.713996 356.628076,283.699441 360.754541,281.320455 L559.109619,167.010026 C561.199219,165.807302 562.488574,163.309223 562.488574,161.155179 C562.488574,159.001135 562.488574,156.35404 557.265259,153.991614 Z" id="Fill-37" fill="#B4D4EB"></path>
                    <g id="Group-41" transform="translate(80.419922, 0.000000)" fill="#DEF1FF">
                        <path d="M479.074065,155.189271 L212.093701,1.13725068 C210.01333,-0.0641506803 207.453076,-0.0615044218 205.375342,1.14386633 L0.392871094,119.919856 L266.949316,273.888438 C271.111377,276.292564 276.23584,276.287271 280.393945,273.87653 L479.077858,158.651679 L479.077858,158.651679 C480.03337,158.097539 480.358746,156.873724 479.804606,155.918213 C479.629055,155.615507 479.377155,155.364158 479.074065,155.189271 Z" id="Fill-39"></path>
                    </g>
                    <g id="Group" transform="translate(111.000000, 18.000000)">
                        <mask id="mask-6" fill="white">
                            <use xlink:href="#path-5"></use>
                        </mask>
                        <use id="Fill-42" fill="#FFFFFF" xlink:href="#path-5"></use>
                    </g>
                    <path d="M453.394336,210.558841 C453.394336,213.71715 449.279736,216.277405 444.201416,216.277405 C439.124414,216.277405 435.009814,213.71715 435.009814,210.558841 C435.009814,207.400531 439.124414,204.840276 444.201416,204.840276 C449.279736,204.840276 453.394336,207.400531 453.394336,210.558841" id="Fill-44" fill="#B4D4EB"></path>
                    <g id="Group-49" transform="translate(179.296875, 58.540816)">
                        <path d="M25.0588477,0.973823129 L0.985605469,15.1961395" id="Fill-46" fill="#CBDFF3"></path>
                        <path d="M25.0588477,0.973823129 L0.985605469,15.1961395" id="Stroke-48" stroke="#B4D4EB" stroke-width="1.9779228" stroke-linecap="round" stroke-linejoin="round"></path>
                    </g>
                    <path d="M446.761406,275.514828 L437.978496,270.20908 L546.718096,203.7999 C547.139971,203.541889 547.668633,203.541889 548.089189,203.7999 L555.988799,208.624029 L446.761406,275.514828 Z" id="Fill-50" fill="#DEF1FF"></path>
                    <path d="M450.78291,287.908436 L439.652344,287.908436 L442,282.602688 L550.7396,216.193508 C551.161475,215.935497 551.690137,215.935497 552.110693,216.193508 L557.219163,219.313145 L557.219163,219.313145 C558.161853,219.888826 558.459372,221.11971 557.883691,222.0624 C557.718548,222.332824 557.491516,222.560141 557.221299,222.725622 L450.78291,287.908436 Z" id="Fill-50" fill-opacity="0.1" fill="#2C2C2C"></path>
                    <polygon id="Fill-52" fill="#F1F2F2" points="430.646177 285.276876 437.978892 270.20908 446.761802 275.514828"></polygon>
                    <path d="M446.761406,275.514828 L446.761406,285.33377 L554.554424,219.502798 C555.324346,219.033087 555.801592,218.199515 555.820049,217.294495 L555.988799,208.624029 L446.761406,275.514828 Z" id="Fill-54" fill="#B4D4EB"></path>
                    <polygon id="Fill-56" fill="#CECECE" points="446.761406 275.514828 446.761406 285.33377 430.645781 285.276876"></polygon>
                    <polygon id="Fill-58" fill="#414042" points="432.28002 281.919965 434.204824 283.121366 434.204824 285.276744 430.646572 285.276744"></polygon>
                    <polygon id="Fill-60" fill="#231F20" points="434.204824 283.121631 430.646572 285.277008 434.204824 285.277008"></polygon>
                </g>
            </g>
        </g>
    </g>
</svg>