<?xml version="1.0" standalone="no"?>
<!DOCTYPE svg PUBLIC "-//W3C//DTD SVG 20010904//EN"
 "http://www.w3.org/TR/2001/REC-SVG-20010904/DTD/svg10.dtd">
<svg version="1.0" xmlns="http://www.w3.org/2000/svg"
 width="626.000000pt" height="416.000000pt" viewBox="0 0 626.000000 416.000000"
 preserveAspectRatio="xMidYMid meet">
<metadata>
Created by potrace 1.15, written by Peter Selinger 2001-2017
</metadata>
<g transform="translate(0.000000,416.000000) scale(0.100000,-0.100000)"
fill="#000000" stroke="none">
<path d="M0 3470 c0 -634 3 -716 24 -682 3 5 31 14 62 21 59 13 164 7 164 -9
0 -6 11 -5 26 0 35 14 33 14 50 -25 30 -74 -31 -119 -109 -80 -32 16 -32 16
-59 -15 -34 -37 -35 -61 -6 -109 53 -87 87 -119 151 -140 34 -12 84 -24 111
-27 41 -6 46 -9 33 -19 -15 -11 -15 -14 4 -34 11 -12 24 -19 30 -16 5 4 9 1 9
-5 0 -7 5 -10 11 -8 6 2 10 7 9 12 -1 5 4 13 12 17 10 7 10 9 1 9 -7 0 -13 4
-13 10 0 5 7 7 15 4 10 -4 13 -13 10 -25 -5 -14 0 -21 16 -27 22 -8 21 -9 -11
-20 -69 -25 -120 -3 -120 50 0 24 -36 23 -96 -2 -26 -11 -81 -26 -123 -32 -42
-6 -104 -23 -139 -39 l-62 -28 0 -1125 0 -1126 1326 0 1325 0 -62 57 c-34 32
-75 67 -92 78 l-31 19 25 6 c24 6 24 6 -8 25 -19 11 -28 22 -22 26 6 3 -27 19
-73 34 -45 15 -123 43 -172 62 -48 19 -90 32 -93 30 -2 -3 17 -12 44 -21 45
-16 105 -45 93 -46 -3 0 -40 13 -83 30 -92 35 -184 57 -250 59 -27 1 -63 8
-82 15 -26 11 -76 14 -212 11 -196 -3 -182 1 -371 -94 l-53 -26 -19 25 -20 25
-6 -23 c-8 -28 -25 -24 -42 11 -14 29 -27 34 -37 16 -4 -6 -13 -8 -21 -5 -8 3
-17 -1 -20 -9 -10 -24 -23 -18 -87 44 -34 32 -71 61 -83 65 -45 14 -63 136
-19 136 7 0 15 14 19 32 8 42 77 101 130 111 229 44 435 29 579 -44 32 -16 83
-38 114 -49 61 -21 226 -42 313 -38 30 1 101 -8 158 -20 61 -13 134 -21 180
-21 l77 2 -75 8 c-98 12 -108 17 -35 19 l60 2 -80 13 c-107 18 -159 17 -90 0
28 -7 43 -13 35 -14 -21 -1 -170 26 -176 32 -3 3 19 17 48 31 101 49 397 109
440 89 21 -11 19 -12 -21 -12 -24 -1 -42 -3 -40 -5 8 -8 258 -28 391 -31 132
-4 177 7 86 21 -45 6 -49 8 -28 15 14 4 -12 5 -58 4 -56 -2 -80 0 -76 7 5 7
-2 9 -19 4 -24 -6 -257 11 -265 19 -2 2 1 13 8 24 7 14 21 21 42 21 29 0 30 1
15 18 -17 19 -17 36 1 69 14 26 15 33 3 33 -5 0 -18 -20 -29 -44 -23 -47 -59
-74 -46 -34 9 29 51 108 68 128 7 8 23 34 36 57 29 52 72 75 159 82 38 4 66
11 69 19 3 9 -3 10 -23 2 -36 -14 -53 -12 -33 4 13 10 15 15 6 24 -9 9 -9 12
0 12 7 0 12 10 12 22 0 21 0 21 23 -3 13 -13 22 -27 20 -31 -5 -10 1 -10 31 2
14 5 26 17 26 25 0 10 -5 13 -12 9 -7 -4 -8 -3 -4 5 4 6 15 10 23 9 21 -4 28
18 8 25 -8 4 -15 2 -15 -4 0 -6 -5 -7 -10 -4 -8 5 -8 11 0 20 7 9 6 16 -5 25
-8 7 -12 17 -9 22 4 6 10 5 15 -3 8 -12 11 -11 19 1 8 11 9 7 5 -15 -6 -28 -5
-29 9 -11 8 10 19 15 25 11 6 -3 11 1 11 10 0 9 -5 13 -10 10 -5 -3 -10 0 -10
7 0 8 11 15 25 16 47 3 55 5 55 14 0 5 -9 6 -20 3 -11 -3 -20 -2 -20 4 0 5 9
13 20 16 11 4 18 11 14 16 -3 5 -10 6 -16 3 -6 -4 -8 -2 -5 3 8 13 77 22 77
11 0 -4 5 -8 10 -8 6 0 5 8 -2 20 -9 13 -15 16 -20 7 -4 -6 -9 -9 -12 -6 -8 8
5 49 16 49 5 0 6 5 3 10 -3 6 3 10 14 10 11 0 23 5 27 12 5 8 2 9 -9 5 -19 -7
-23 9 -4 16 9 4 9 8 -2 15 -11 8 -11 11 4 13 20 4 29 49 11 49 -6 0 -2 7 9 16
17 13 18 16 5 24 -12 8 -11 10 5 10 19 1 19 1 2 11 -14 8 -16 14 -6 25 9 11 8
15 -5 20 -22 8 -20 25 2 18 14 -5 14 -3 -2 10 -23 19 -14 21 13 4 29 -18 82
18 94 62 5 19 13 39 17 44 5 5 5 17 -1 28 -8 14 -7 24 3 35 12 15 11 15 -8 3
-20 -12 -36 -1 -230 161 -115 96 -263 217 -330 271 -67 53 -124 104 -127 115
-4 10 -11 25 -16 33 -32 49 -71 154 -66 181 4 21 1 29 -10 29 -8 0 -16 6 -16
13 -5 53 -12 74 -43 130 -27 50 -32 67 -23 77 10 9 1 11 -40 5 -44 -6 -58 -3
-88 15 -19 12 -40 30 -45 41 -6 10 -16 19 -23 19 -16 1 -60 40 -83 75 l-18 27
-18 -25 c-17 -23 -22 -25 -46 -15 -15 6 -35 20 -45 31 -14 15 -20 17 -32 7 -8
-6 -23 -9 -35 -5 -11 4 -34 8 -50 10 -28 4 -30 2 -30 -28 0 -18 5 -38 11 -44
8 -8 6 -24 -5 -57 -9 -26 -16 -63 -17 -84 0 -20 -6 -52 -13 -70 -11 -32 -12
-33 -28 -15 -21 23 -36 79 -19 68 9 -5 12 2 9 26 -2 26 -8 34 -23 34 -18 0
-20 -6 -17 -55 5 -96 39 -164 64 -129 8 11 9 11 5 -3 -10 -31 64 -51 197 -54
158 -3 192 -9 310 -55 128 -49 176 -96 176 -172 0 -74 -64 -108 -134 -72 -15
8 -37 15 -47 15 -11 0 -28 9 -39 20 -21 21 -69 27 -85 11 -6 -4 -22 -11 -37
-15 -27 -6 -34 1 -29 27 1 5 -22 6 -51 3 -29 -3 -80 -7 -113 -10 -33 -2 -62
-5 -65 -6 -3 -2 -25 -4 -50 -5 -25 -1 -52 -5 -60 -8 -9 -4 -49 0 -90 8 -41 9
-83 16 -93 16 -10 0 -43 13 -73 30 -31 16 -59 27 -64 24 -5 -3 -22 0 -37 8
-15 8 -34 12 -40 10 -7 -3 -13 0 -13 6 0 6 -10 11 -22 12 -34 1 -80 31 -98 65
-10 16 -29 33 -46 37 -16 5 -45 13 -64 19 -19 5 -60 23 -92 39 -63 32 -123 36
-138 9 -6 -11 -5 -21 2 -28 9 -9 9 -12 0 -12 -7 0 -12 -12 -12 -27 l0 -26
-132 7 c-135 7 -213 18 -226 31 -4 3 -9 59 -10 122 -5 165 13 205 126 265 78
43 100 55 142 82 25 15 50 35 57 43 6 8 104 48 218 89 113 41 268 104 343 140
123 60 134 68 118 80 -11 7 -24 15 -30 17 -21 8 5 21 39 20 20 -1 41 7 54 18
19 18 27 14 22 -13 -1 -11 1 -10 42 7 20 8 51 15 69 15 46 -1 160 -51 216 -96
26 -21 44 -34 40 -30 -13 15 30 83 61 96 60 25 131 -21 131 -86 0 -35 -41 -64
-90 -64 -24 0 -40 -3 -36 -7 4 -5 60 -35 124 -68 80 -42 120 -68 131 -88 26
-46 67 -67 109 -55 20 6 45 16 56 23 42 26 125 44 269 59 211 23 197 25 197
-31 0 -67 -37 -170 -64 -177 -12 -3 -102 -8 -201 -11 -98 -3 -180 -7 -182 -9
-5 -5 27 -91 72 -196 22 -52 39 -111 43 -150 l7 -65 20 54 c22 61 52 86 90 77
42 -11 46 -34 19 -115 -13 -40 -34 -89 -45 -108 -12 -19 -20 -35 -18 -37 2 -2
18 -6 36 -9 31 -6 32 -5 27 21 -6 35 29 94 51 86 8 -4 15 -13 15 -21 0 -22
-29 -73 -42 -73 -7 0 -2 -7 10 -16 27 -19 27 -29 3 -79 -20 -41 -18 -65 4 -65
7 0 69 -45 137 -100 237 -194 298 -240 298 -229 0 7 -8 18 -17 26 -15 12 -15
14 -2 10 14 -5 15 -2 5 18 -6 13 -13 22 -16 20 -3 -2 -6 13 -7 33 -1 22 -9 42
-20 50 -10 7 -16 21 -15 30 3 14 1 15 -9 5 -7 -7 -18 -13 -23 -13 -6 0 -3 5 7
11 21 12 22 52 2 69 -8 7 -15 18 -15 24 1 6 6 5 13 -4 16 -20 34 -22 34 -5 0
8 -3 13 -6 11 -10 -6 -30 21 -23 29 4 4 -4 4 -17 0 -23 -7 -24 -5 -17 25 5 27
4 30 -8 21 -11 -9 -13 -6 -11 14 2 16 -2 25 -11 25 -8 0 -14 5 -14 10 0 6 5
10 11 10 6 0 9 6 6 14 -3 8 1 17 10 20 22 9 -4 39 -29 33 -15 -4 -17 -1 -12
19 4 17 1 26 -10 30 -9 3 -14 10 -11 14 3 5 1 11 -5 15 -14 9 -13 23 3 22 39
-1 45 4 43 33 -1 20 5 36 18 47 12 10 15 11 8 3 -16 -19 -15 -27 4 -27 13 0
15 7 11 33 l-5 32 32 -13 c31 -13 35 -13 56 10 26 28 45 33 36 10 -4 -12 0
-14 18 -11 34 6 53 -8 37 -28 -7 -8 -10 -20 -6 -25 8 -14 45 9 45 27 0 7 5 10
10 7 7 -4 7 -13 0 -26 -13 -23 2 -26 20 -4 17 20 31 19 23 -2 -5 -12 -2 -15
10 -10 8 3 18 1 20 -6 3 -9 7 -9 19 1 13 10 17 10 22 -3 3 -9 10 -13 16 -10 5
3 10 2 10 -4 0 -5 -5 -13 -10 -16 -6 -4 -7 -11 -4 -17 5 -7 2 -8 -7 -4 -8 4
-5 0 5 -8 18 -14 15 -20 -6 -17 -4 0 -4 -7 -1 -16 4 -9 8 -12 10 -6 6 16 63
-18 63 -36 0 -12 -3 -12 -18 0 -10 8 -7 3 8 -10 l25 -25 -23 7 c-19 4 -22 2
-18 -10 5 -12 4 -13 -7 -5 -8 7 -17 9 -20 5 -10 -10 -8 -35 2 -29 5 3 11 -2
13 -12 3 -10 13 -19 22 -20 9 -1 23 -3 31 -4 8 -1 11 -6 8 -11 -3 -6 2 -16 12
-23 14 -10 15 -16 6 -27 -9 -11 -8 -17 5 -28 15 -12 16 -11 10 8 -7 23 8 41
20 22 5 -8 3 -9 -6 -4 -8 5 -11 4 -6 -3 4 -6 13 -9 21 -5 8 3 15 0 15 -7 0
-10 3 -10 14 0 8 6 12 19 9 28 -6 15 -5 15 14 0 21 -20 38 -24 28 -8 -3 6 -2
10 4 10 5 0 9 -9 8 -19 0 -11 -6 -17 -12 -13 -5 3 -4 -2 4 -11 7 -9 22 -17 33
-17 10 0 17 -4 13 -9 -3 -5 -1 -12 5 -16 6 -4 7 -11 4 -17 -4 -7 -2 -8 4 -4 7
4 12 2 12 -4 0 -6 4 -9 8 -6 5 3 18 -4 30 -14 12 -11 26 -20 33 -20 6 0 8 -7
5 -16 -5 -13 -2 -15 11 -9 10 4 26 7 36 7 11 -1 15 4 11 11 -4 7 -4 9 1 5 4
-4 13 -4 19 2 8 6 12 3 13 -10 1 -11 -7 -25 -18 -30 -24 -13 -24 -26 0 -47 21
-18 18 -45 -5 -36 -8 3 -14 -1 -14 -11 0 -9 7 -16 15 -16 8 0 15 -4 15 -10 0
-5 7 -10 16 -10 8 0 12 -4 9 -10 -12 -19 5 -30 30 -20 16 6 25 6 25 0 0 -6 -7
-10 -15 -10 -8 0 -15 -6 -15 -12 0 -7 -11 -14 -25 -14 -14 -1 -23 2 -20 6 3 5
-4 8 -15 7 -24 -2 -26 -12 -5 -21 8 -3 15 -13 15 -21 0 -9 4 -14 9 -10 5 3 13
0 17 -6 4 -7 3 -9 -4 -5 -5 3 -12 2 -14 -3 -5 -14 -58 -22 -58 -9 0 6 -3 9 -6
5 -3 -3 -1 -14 5 -24 7 -11 11 -13 11 -4 0 8 8 4 19 -10 22 -27 19 -41 -7 -33
-13 5 -14 4 -3 -4 9 -6 11 -17 6 -33 -7 -21 -6 -22 7 -11 16 13 48 7 48 -10 0
-6 -7 -8 -15 -4 -20 7 -19 -4 3 -20 15 -12 14 -12 -8 -7 l-25 5 23 -16 c12
-10 22 -22 22 -28 0 -6 8 -20 17 -31 17 -18 17 -19 0 -28 -9 -6 -17 -19 -17
-29 0 -12 -7 -20 -17 -20 -16 -1 -16 -2 2 -17 19 -15 18 -15 -15 -9 -33 6 -33
6 -15 -10 16 -13 17 -15 3 -10 -10 3 -20 1 -23 -4 -4 -6 4 -10 17 -10 34 0 49
-13 38 -30 -7 -10 -10 -11 -10 -2 0 6 -8 12 -17 12 -14 0 -13 -3 5 -16 12 -8
26 -12 32 -9 6 3 7 -1 4 -9 -3 -9 -9 -15 -12 -14 -28 3 -50 -5 -54 -20 -4 -15
-1 -18 17 -14 13 2 26 -1 29 -7 5 -7 -2 -11 -16 -12 l-23 0 22 -11 c13 -6 23
-15 23 -20 0 -5 -5 -6 -10 -3 -13 8 -50 -4 -50 -16 0 -5 9 -9 20 -9 11 0 20
-4 20 -10 0 -5 -7 -10 -16 -10 -8 0 -12 -5 -9 -10 4 -6 15 -8 25 -5 10 3 22 0
26 -7 4 -6 2 -14 -4 -16 -6 -2 -8 -10 -5 -18 3 -8 0 -14 -5 -14 -6 0 -13 10
-15 23 -4 18 -4 18 -6 -6 -1 -26 -3 -28 -36 -21 -21 4 -35 2 -35 -4 0 -5 17
-13 38 -17 49 -9 115 -31 177 -59 28 -13 69 -31 93 -41 39 -17 102 -74 102
-94 0 -4 -9 -18 -20 -31 -11 -13 -20 -30 -20 -38 0 -12 -5 -11 -23 6 -34 32
-43 27 -13 -9 14 -17 26 -36 26 -42 0 -25 -13 -57 -22 -57 -15 0 -73 52 -70
62 1 5 -2 7 -7 3 -6 -3 -17 5 -26 19 -9 13 -24 27 -33 31 -17 6 -13 1 42 -63
11 -12 21 -29 22 -37 1 -8 12 -28 25 -46 21 -30 21 -32 5 -58 -10 -14 -20 -34
-23 -43 -7 -24 -28 -23 -53 2 -12 12 -25 18 -30 15 -5 -3 -33 23 -62 57 -93
109 -182 196 -208 203 -22 6 -21 4 10 -21 39 -31 173 -178 179 -197 3 -8 -1
-7 -13 2 -14 12 -16 12 -10 -3 4 -10 12 -15 20 -12 7 3 18 -1 24 -9 9 -11 4
-15 -26 -21 -35 -6 -36 -8 -15 -16 12 -4 27 -6 32 -3 9 6 84 -29 94 -45 4 -6
-1 -7 -12 -3 -15 5 -14 2 4 -15 l22 -22 -22 -47 c-36 -77 -32 -75 -90 -53 -52
19 -52 19 -27 0 18 -15 6 -12 -45 11 -100 44 -182 74 -242 88 -29 7 -51 17
-48 21 3 5 -5 6 -17 2 -16 -4 -19 -2 -13 8 5 8 4 11 -3 6 -13 -8 -102 12 -117
26 -6 6 1 7 20 4 22 -5 25 -4 10 2 -11 5 -40 7 -65 5 -25 -1 -84 4 -133 12
-111 19 -116 18 -38 -6 35 -12 59 -24 53 -28 -6 -4 21 -13 60 -20 40 -7 90
-20 112 -27 28 -10 42 -11 46 -4 13 21 231 -47 372 -115 20 -10 34 -23 31 -28
-3 -6 -1 -7 5 -3 6 4 24 0 39 -8 32 -17 23 -22 -10 -5 -20 9 -21 9 -4 -5 21
-16 95 -15 139 2 35 14 72 65 92 127 16 50 68 318 71 365 0 14 9 51 18 82 21
69 36 145 44 213 3 28 8 57 13 65 4 8 8 31 8 50 1 42 51 199 89 280 20 43 121
331 134 383 5 21 20 56 34 77 14 22 25 47 25 55 0 9 7 26 15 38 19 29 91 316
110 437 23 145 34 333 26 450 -6 97 -8 105 -28 108 -12 2 -35 -9 -55 -26 -43
-37 -61 -47 -125 -62 -29 -6 -54 -17 -55 -23 -1 -7 -2 -23 -2 -37 -1 -14 -6
-24 -13 -23 -6 2 -14 -6 -18 -16 -5 -17 -9 -18 -31 -7 -15 9 -48 12 -89 9 -49
-3 -71 0 -90 13 l-26 17 31 14 c18 7 45 13 61 13 26 0 44 12 34 22 -12 12
-121 -14 -138 -33 -12 -12 -27 -19 -38 -16 -11 3 -21 2 -23 -2 -3 -4 -23 -8
-45 -9 -43 -3 -87 15 -136 56 l-29 24 -9 -25 c-6 -18 -25 -34 -63 -51 -75 -34
-112 -62 -116 -87 l-3 -20 -22 20 c-15 14 -23 17 -26 8 -4 -9 -6 -9 -6 1 -1 7
-5 11 -10 7 -8 -5 -8 -21 2 -68 1 -5 -4 -12 -12 -15 -8 -3 -12 1 -9 9 3 8 0
23 -6 34 -9 18 -11 16 -16 -20 -3 -27 -10 -41 -22 -43 -13 -2 -18 3 -19 20 -1
13 -5 -3 -9 -35 -4 -32 -9 -60 -12 -62 -2 -2 -35 -7 -73 -10 -38 -4 -72 -7
-75 -7 -41 -4 -67 82 -40 132 23 44 233 134 373 161 81 16 98 25 189 108 64
57 92 75 164 102 118 45 150 82 199 230 26 79 34 114 26 123 -7 9 -7 16 1 24
9 9 9 12 1 12 -7 0 -15 -5 -19 -12 -7 -11 -26 18 -56 85 -13 28 -25 31 -90 28
-25 -2 -46 5 -66 19 -25 19 -38 21 -83 16 -74 -8 -122 -7 -132 3 -12 12 32 41
63 41 36 0 161 62 187 94 27 30 43 34 36 7 -4 -14 5 -21 44 -34 126 -41 176
-49 263 -42 84 7 86 6 155 -30 39 -21 89 -51 113 -67 23 -16 66 -36 95 -45 42
-12 69 -31 142 -102 81 -79 197 -166 272 -205 15 -7 56 -36 91 -62 34 -27 94
-71 133 -99 78 -56 180 -179 226 -273 27 -55 28 -61 23 -182 -9 -232 -3 -471
15 -615 22 -167 30 -713 14 -949 -14 -215 -55 -433 -114 -611 l-13 -40 47 -23
c25 -13 60 -24 77 -26 42 -5 108 -40 132 -71 11 -14 28 -25 37 -25 25 0 81
-36 152 -98 83 -73 172 -234 151 -274 -5 -12 -5 -18 2 -18 5 0 10 6 10 13 0 8
4 7 10 -3 6 -10 10 719 10 2068 l0 2082 -580 0 -580 0 14 -23 c9 -13 16 -50
17 -92 2 -78 -15 -125 -54 -148 -23 -15 -158 -23 -205 -12 -40 8 -57 39 -42
76 13 30 24 36 35 19 7 -11 24 -8 92 16 49 18 55 30 44 88 -4 25 -4 51 1 60 8
15 -38 16 -532 16 -491 0 -540 -1 -540 -16 0 -11 6 -15 20 -11 32 8 26 -49
-10 -97 -17 -22 -30 -44 -30 -50 0 -6 -12 -24 -26 -40 -23 -24 -32 -28 -65
-23 -22 3 -37 1 -33 -4 3 -5 -1 -9 -10 -9 -8 0 -16 5 -18 12 -3 8 -11 7 -28
-5 -14 -9 -32 -17 -42 -17 -9 0 -32 -14 -50 -30 -18 -17 -44 -33 -58 -36 -14
-2 -48 -16 -76 -31 -35 -18 -58 -23 -74 -18 -14 5 -20 3 -16 -3 3 -6 -7 -13
-24 -17 -27 -6 -90 -70 -90 -91 0 -14 -161 -174 -174 -174 -4 0 -14 -7 -22
-15 -9 -8 -21 -15 -29 -15 -15 0 -36 48 -40 92 l-2 33 -59 2 c-385 11 -641 23
-697 33 l-69 12 -26 -31 c-35 -41 -85 -50 -148 -26 -35 13 -49 25 -60 51 -21
49 -17 69 17 108 34 39 140 98 156 88 6 -4 18 -22 27 -39 19 -38 16 -37 60
-19 99 41 404 76 670 76 125 0 177 5 231 19 45 12 76 16 87 10 9 -5 49 -9 88
-9 l71 0 14 34 c13 30 22 78 40 219 l5 37 -185 0 -186 0 4 -37 c8 -77 -40
-140 -113 -150 -85 -12 -135 41 -128 134 l3 48 -1417 3 -1418 2 0 -690z"/>
<path d="M2792 556 c26 -13 44 -27 40 -31 -4 -5 -2 -5 5 -1 19 10 108 -15 91
-26 -8 -6 -1 -7 22 -3 27 5 31 4 20 -5 -11 -8 -5 -9 28 -6 29 3 40 2 36 -6 -4
-7 -2 -8 5 -4 6 4 77 -11 157 -34 80 -23 148 -39 150 -37 3 2 -46 21 -108 42
-129 43 -153 54 -123 55 17 1 16 3 -5 11 -14 6 -41 8 -60 4 -27 -4 -32 -3 -20
5 12 9 10 10 -12 6 -36 -8 -94 4 -76 16 8 6 4 7 -13 3 -14 -4 -58 3 -99 14
-92 26 -97 25 -38 -3z"/>
</g>
</svg>
