<?xml version="1.0" standalone="no"?>
<!DOCTYPE svg PUBLIC "-//W3C//DTD SVG 20010904//EN"
 "http://www.w3.org/TR/2001/REC-SVG-20010904/DTD/svg10.dtd">
<svg version="1.0" xmlns="http://www.w3.org/2000/svg"
 width="94.000000pt" height="94.000000pt" viewBox="0 0 94.000000 94.000000"
 preserveAspectRatio="xMidYMid meet">
<metadata>
Created by potrace 1.11, written by Peter Selinger 2001-2013
</metadata>
<g transform="translate(0.000000,94.000000) scale(0.100000,-0.100000)"
fill="#000000" stroke="none">
<path d="M322 910 c-123 -44 -221 -132 -275 -248 -30 -64 -32 -73 -32 -187 0
-117 1 -122 36 -196 66 -139 193 -234 345 -260 225 -39 461 114 518 336 62
237 -73 484 -305 556 -82 26 -215 25 -287 -1z m298 -49 c115 -44 208 -142 246
-258 24 -75 24 -189 0 -262 l-18 -53 -147 146 c-80 80 -153 146 -161 146 -8 0
-59 -44 -112 -97 l-98 -97 -45 44 -45 44 -80 -79 -79 -79 -12 30 c-7 16 -13
74 -13 129 -1 92 1 105 31 167 55 116 164 209 279 237 62 16 192 7 254 -18z
m64 -470 c157 -157 153 -146 68 -222 -48 -44 -118 -88 -124 -78 -2 2 -61 64
-133 137 l-130 132 85 85 c46 47 87 85 90 85 3 0 68 -62 144 -139z m-270 -150
c194 -194 193 -187 27 -179 -74 3 -99 9 -153 36 -63 31 -148 106 -174 154 -12
21 -8 27 54 91 36 37 69 67 72 67 3 0 81 -76 174 -169z"/>
<path d="M294 730 c-54 -22 -70 -91 -31 -135 48 -57 147 -20 147 55 0 56 -66
101 -116 80z m72 -55 c15 -23 15 -27 0 -50 -10 -15 -26 -25 -41 -25 -15 0 -31
10 -41 25 -15 23 -15 27 0 50 10 15 26 25 41 25 15 0 31 -10 41 -25z"/>
</g>
</svg>
